<mxfile host="65bd71144e">
    <diagram id="kNeOJjnv65M7sDIE50Z1" name="第2頁">
        <mxGraphModel dx="1045" dy="786" grid="1" gridSize="10" guides="1" tooltips="1" connect="1" arrows="1" fold="1" page="1" pageScale="1" pageWidth="827" pageHeight="1169" background="#ffffff" math="0" shadow="0">
            <root>
                <mxCell id="o2rCxQrs2q715OUxCT-L-0"/>
                <mxCell id="o2rCxQrs2q715OUxCT-L-1" parent="o2rCxQrs2q715OUxCT-L-0"/>
                <mxCell id="rxuDzsYk6l3-nFHS3t-N-0" value="Auth" style="shape=table;startSize=30;container=1;collapsible=0;childLayout=tableLayout;fontStyle=1;align=center;pointerEvents=1;fillColor=#dae8fc;strokeColor=#6c8ebf;" parent="o2rCxQrs2q715OUxCT-L-1" vertex="1">
                    <mxGeometry x="50" y="30" width="680" height="340" as="geometry"/>
                </mxCell>
                <mxCell id="rxuDzsYk6l3-nFHS3t-N-1" value="" style="shape=partialRectangle;html=1;whiteSpace=wrap;collapsible=0;dropTarget=0;pointerEvents=0;fillColor=none;top=0;left=0;bottom=0;right=0;points=[[0,0.5],[1,0.5]];portConstraint=eastwest;" parent="rxuDzsYk6l3-nFHS3t-N-0" vertex="1">
                    <mxGeometry y="30" width="680" height="69" as="geometry"/>
                </mxCell>
                <mxCell id="rxuDzsYk6l3-nFHS3t-N-34" value="Sign Up" style="shape=partialRectangle;html=1;whiteSpace=wrap;connectable=0;fillColor=none;top=0;left=0;bottom=0;right=0;overflow=hidden;pointerEvents=1;fontSize=15;" parent="rxuDzsYk6l3-nFHS3t-N-1" vertex="1">
                    <mxGeometry width="110" height="69" as="geometry">
                        <mxRectangle width="110" height="69" as="alternateBounds"/>
                    </mxGeometry>
                </mxCell>
                <mxCell id="rxuDzsYk6l3-nFHS3t-N-2" value="POST" style="shape=partialRectangle;html=1;whiteSpace=wrap;connectable=0;fillColor=none;top=0;left=0;bottom=0;right=0;overflow=hidden;pointerEvents=1;fontSize=15;" parent="rxuDzsYk6l3-nFHS3t-N-1" vertex="1">
                    <mxGeometry x="110" width="111" height="69" as="geometry">
                        <mxRectangle width="111" height="69" as="alternateBounds"/>
                    </mxGeometry>
                </mxCell>
                <mxCell id="rxuDzsYk6l3-nFHS3t-N-3" value="&lt;span style=&quot;font-size: 15px&quot;&gt;/api/users/signup&lt;/span&gt;" style="shape=partialRectangle;html=1;whiteSpace=wrap;connectable=0;fillColor=none;top=0;left=0;bottom=0;right=0;overflow=hidden;pointerEvents=1;fontSize=15;" parent="rxuDzsYk6l3-nFHS3t-N-1" vertex="1">
                    <mxGeometry x="221" width="198" height="69" as="geometry">
                        <mxRectangle width="198" height="69" as="alternateBounds"/>
                    </mxGeometry>
                </mxCell>
                <mxCell id="rxuDzsYk6l3-nFHS3t-N-4" value="{email:string, password: string}" style="shape=partialRectangle;html=1;whiteSpace=wrap;connectable=0;fillColor=none;top=0;left=0;bottom=0;right=0;overflow=hidden;pointerEvents=1;fontSize=15;" parent="rxuDzsYk6l3-nFHS3t-N-1" vertex="1">
                    <mxGeometry x="419" width="261" height="69" as="geometry">
                        <mxRectangle width="261" height="69" as="alternateBounds"/>
                    </mxGeometry>
                </mxCell>
                <mxCell id="rxuDzsYk6l3-nFHS3t-N-5" value="" style="shape=partialRectangle;html=1;whiteSpace=wrap;collapsible=0;dropTarget=0;pointerEvents=0;fillColor=none;top=0;left=0;bottom=0;right=0;points=[[0,0.5],[1,0.5]];portConstraint=eastwest;" parent="rxuDzsYk6l3-nFHS3t-N-0" vertex="1">
                    <mxGeometry y="99" width="680" height="103" as="geometry"/>
                </mxCell>
                <mxCell id="rxuDzsYk6l3-nFHS3t-N-35" value="Sign In" style="shape=partialRectangle;html=1;whiteSpace=wrap;connectable=0;fillColor=none;top=0;left=0;bottom=0;right=0;overflow=hidden;pointerEvents=1;fontSize=15;" parent="rxuDzsYk6l3-nFHS3t-N-5" vertex="1">
                    <mxGeometry width="110" height="103" as="geometry">
                        <mxRectangle width="110" height="103" as="alternateBounds"/>
                    </mxGeometry>
                </mxCell>
                <mxCell id="rxuDzsYk6l3-nFHS3t-N-6" value="POST" style="shape=partialRectangle;html=1;whiteSpace=wrap;connectable=0;fillColor=none;top=0;left=0;bottom=0;right=0;overflow=hidden;pointerEvents=1;fontSize=15;" parent="rxuDzsYk6l3-nFHS3t-N-5" vertex="1">
                    <mxGeometry x="110" width="111" height="103" as="geometry">
                        <mxRectangle width="111" height="103" as="alternateBounds"/>
                    </mxGeometry>
                </mxCell>
                <mxCell id="rxuDzsYk6l3-nFHS3t-N-7" value="&lt;span&gt;/api/users/signin&lt;/span&gt;" style="shape=partialRectangle;html=1;whiteSpace=wrap;connectable=0;fillColor=none;top=0;left=0;bottom=0;right=0;overflow=hidden;pointerEvents=1;fontSize=15;" parent="rxuDzsYk6l3-nFHS3t-N-5" vertex="1">
                    <mxGeometry x="221" width="198" height="103" as="geometry">
                        <mxRectangle width="198" height="103" as="alternateBounds"/>
                    </mxGeometry>
                </mxCell>
                <mxCell id="rxuDzsYk6l3-nFHS3t-N-8" value="{email:string, password: string}" style="shape=partialRectangle;html=1;whiteSpace=wrap;connectable=0;fillColor=none;top=0;left=0;bottom=0;right=0;overflow=hidden;pointerEvents=1;fontSize=15;" parent="rxuDzsYk6l3-nFHS3t-N-5" vertex="1">
                    <mxGeometry x="419" width="261" height="103" as="geometry">
                        <mxRectangle width="261" height="103" as="alternateBounds"/>
                    </mxGeometry>
                </mxCell>
                <mxCell id="rxuDzsYk6l3-nFHS3t-N-9" value="" style="shape=partialRectangle;html=1;whiteSpace=wrap;collapsible=0;dropTarget=0;pointerEvents=0;fillColor=none;top=0;left=0;bottom=0;right=0;points=[[0,0.5],[1,0.5]];portConstraint=eastwest;" parent="rxuDzsYk6l3-nFHS3t-N-0" vertex="1">
                    <mxGeometry y="202" width="680" height="69" as="geometry"/>
                </mxCell>
                <mxCell id="rxuDzsYk6l3-nFHS3t-N-36" value="Sign Out" style="shape=partialRectangle;html=1;whiteSpace=wrap;connectable=0;fillColor=none;top=0;left=0;bottom=0;right=0;overflow=hidden;pointerEvents=1;fontSize=15;" parent="rxuDzsYk6l3-nFHS3t-N-9" vertex="1">
                    <mxGeometry width="110" height="69" as="geometry">
                        <mxRectangle width="110" height="69" as="alternateBounds"/>
                    </mxGeometry>
                </mxCell>
                <mxCell id="rxuDzsYk6l3-nFHS3t-N-10" value="POST" style="shape=partialRectangle;html=1;whiteSpace=wrap;connectable=0;fillColor=none;top=0;left=0;bottom=0;right=0;overflow=hidden;pointerEvents=1;fontSize=15;" parent="rxuDzsYk6l3-nFHS3t-N-9" vertex="1">
                    <mxGeometry x="110" width="111" height="69" as="geometry">
                        <mxRectangle width="111" height="69" as="alternateBounds"/>
                    </mxGeometry>
                </mxCell>
                <mxCell id="rxuDzsYk6l3-nFHS3t-N-11" value="&lt;span&gt;/api/users/signout&lt;/span&gt;" style="shape=partialRectangle;html=1;whiteSpace=wrap;connectable=0;fillColor=none;top=0;left=0;bottom=0;right=0;overflow=hidden;pointerEvents=1;fontSize=15;" parent="rxuDzsYk6l3-nFHS3t-N-9" vertex="1">
                    <mxGeometry x="221" width="198" height="69" as="geometry">
                        <mxRectangle width="198" height="69" as="alternateBounds"/>
                    </mxGeometry>
                </mxCell>
                <mxCell id="rxuDzsYk6l3-nFHS3t-N-12" value="{}" style="shape=partialRectangle;html=1;whiteSpace=wrap;connectable=0;fillColor=none;top=0;left=0;bottom=0;right=0;overflow=hidden;pointerEvents=1;fontSize=15;" parent="rxuDzsYk6l3-nFHS3t-N-9" vertex="1">
                    <mxGeometry x="419" width="261" height="69" as="geometry">
                        <mxRectangle width="261" height="69" as="alternateBounds"/>
                    </mxGeometry>
                </mxCell>
                <mxCell id="rxuDzsYk6l3-nFHS3t-N-13" style="shape=partialRectangle;html=1;whiteSpace=wrap;collapsible=0;dropTarget=0;pointerEvents=0;fillColor=none;top=0;left=0;bottom=0;right=0;points=[[0,0.5],[1,0.5]];portConstraint=eastwest;" parent="rxuDzsYk6l3-nFHS3t-N-0" vertex="1">
                    <mxGeometry y="271" width="680" height="69" as="geometry"/>
                </mxCell>
                <mxCell id="rxuDzsYk6l3-nFHS3t-N-37" value="CurrentUser" style="shape=partialRectangle;html=1;whiteSpace=wrap;connectable=0;fillColor=none;top=0;left=0;bottom=0;right=0;overflow=hidden;pointerEvents=1;fontSize=15;" parent="rxuDzsYk6l3-nFHS3t-N-13" vertex="1">
                    <mxGeometry width="110" height="69" as="geometry">
                        <mxRectangle width="110" height="69" as="alternateBounds"/>
                    </mxGeometry>
                </mxCell>
                <mxCell id="rxuDzsYk6l3-nFHS3t-N-14" value="GET" style="shape=partialRectangle;html=1;whiteSpace=wrap;connectable=0;fillColor=none;top=0;left=0;bottom=0;right=0;overflow=hidden;pointerEvents=1;fontSize=15;" parent="rxuDzsYk6l3-nFHS3t-N-13" vertex="1">
                    <mxGeometry x="110" width="111" height="69" as="geometry">
                        <mxRectangle width="111" height="69" as="alternateBounds"/>
                    </mxGeometry>
                </mxCell>
                <mxCell id="rxuDzsYk6l3-nFHS3t-N-15" value="&lt;span&gt;/api/users/currentuser&lt;/span&gt;" style="shape=partialRectangle;html=1;whiteSpace=wrap;connectable=0;fillColor=none;top=0;left=0;bottom=0;right=0;overflow=hidden;pointerEvents=1;fontSize=15;" parent="rxuDzsYk6l3-nFHS3t-N-13" vertex="1">
                    <mxGeometry x="221" width="198" height="69" as="geometry">
                        <mxRectangle width="198" height="69" as="alternateBounds"/>
                    </mxGeometry>
                </mxCell>
                <mxCell id="rxuDzsYk6l3-nFHS3t-N-16" value="-" style="shape=partialRectangle;html=1;whiteSpace=wrap;connectable=0;fillColor=none;top=0;left=0;bottom=0;right=0;overflow=hidden;pointerEvents=1;fontSize=15;" parent="rxuDzsYk6l3-nFHS3t-N-13" vertex="1">
                    <mxGeometry x="419" width="261" height="69" as="geometry">
                        <mxRectangle width="261" height="69" as="alternateBounds"/>
                    </mxGeometry>
                </mxCell>
                <mxCell id="rxuDzsYk6l3-nFHS3t-N-17" value="Todo" style="shape=table;startSize=30;container=1;collapsible=0;childLayout=tableLayout;fontStyle=1;align=center;pointerEvents=1;fillColor=#f8cecc;strokeColor=#b85450;" parent="o2rCxQrs2q715OUxCT-L-1" vertex="1">
                    <mxGeometry x="50" y="390" width="680" height="260" as="geometry"/>
                </mxCell>
                <mxCell id="rxuDzsYk6l3-nFHS3t-N-18" value="" style="shape=partialRectangle;html=1;whiteSpace=wrap;collapsible=0;dropTarget=0;pointerEvents=0;fillColor=none;top=0;left=0;bottom=0;right=0;points=[[0,0.5],[1,0.5]];portConstraint=eastwest;" parent="rxuDzsYk6l3-nFHS3t-N-17" vertex="1">
                    <mxGeometry y="30" width="680" height="46" as="geometry"/>
                </mxCell>
                <mxCell id="rxuDzsYk6l3-nFHS3t-N-42" value="Get all todos" style="shape=partialRectangle;html=1;whiteSpace=wrap;connectable=0;fillColor=none;top=0;left=0;bottom=0;right=0;overflow=hidden;pointerEvents=1;fontSize=15;" parent="rxuDzsYk6l3-nFHS3t-N-18" vertex="1">
                    <mxGeometry width="110" height="46" as="geometry">
                        <mxRectangle width="110" height="46" as="alternateBounds"/>
                    </mxGeometry>
                </mxCell>
                <mxCell id="rxuDzsYk6l3-nFHS3t-N-19" value="GET" style="shape=partialRectangle;html=1;whiteSpace=wrap;connectable=0;fillColor=none;top=0;left=0;bottom=0;right=0;overflow=hidden;pointerEvents=1;fontSize=15;" parent="rxuDzsYk6l3-nFHS3t-N-18" vertex="1">
                    <mxGeometry x="110" width="111" height="46" as="geometry">
                        <mxRectangle width="111" height="46" as="alternateBounds"/>
                    </mxGeometry>
                </mxCell>
                <mxCell id="rxuDzsYk6l3-nFHS3t-N-20" value="/api/todo" style="shape=partialRectangle;html=1;whiteSpace=wrap;connectable=0;fillColor=none;top=0;left=0;bottom=0;right=0;overflow=hidden;pointerEvents=1;fontSize=15;" parent="rxuDzsYk6l3-nFHS3t-N-18" vertex="1">
                    <mxGeometry x="221" width="198" height="46" as="geometry">
                        <mxRectangle width="198" height="46" as="alternateBounds"/>
                    </mxGeometry>
                </mxCell>
                <mxCell id="rxuDzsYk6l3-nFHS3t-N-21" value="-" style="shape=partialRectangle;html=1;whiteSpace=wrap;connectable=0;fillColor=none;top=0;left=0;bottom=0;right=0;overflow=hidden;pointerEvents=1;fontSize=15;" parent="rxuDzsYk6l3-nFHS3t-N-18" vertex="1">
                    <mxGeometry x="419" width="261" height="46" as="geometry">
                        <mxRectangle width="261" height="46" as="alternateBounds"/>
                    </mxGeometry>
                </mxCell>
                <mxCell id="rxuDzsYk6l3-nFHS3t-N-22" value="" style="shape=partialRectangle;html=1;whiteSpace=wrap;collapsible=0;dropTarget=0;pointerEvents=0;fillColor=none;top=0;left=0;bottom=0;right=0;points=[[0,0.5],[1,0.5]];portConstraint=eastwest;" parent="rxuDzsYk6l3-nFHS3t-N-17" vertex="1">
                    <mxGeometry y="76" width="680" height="46" as="geometry"/>
                </mxCell>
                <mxCell id="rxuDzsYk6l3-nFHS3t-N-43" value="Get specific todo" style="shape=partialRectangle;html=1;whiteSpace=wrap;connectable=0;fillColor=none;top=0;left=0;bottom=0;right=0;overflow=hidden;pointerEvents=1;fontSize=15;" parent="rxuDzsYk6l3-nFHS3t-N-22" vertex="1">
                    <mxGeometry width="110" height="46" as="geometry">
                        <mxRectangle width="110" height="46" as="alternateBounds"/>
                    </mxGeometry>
                </mxCell>
                <mxCell id="rxuDzsYk6l3-nFHS3t-N-23" value="GET" style="shape=partialRectangle;html=1;whiteSpace=wrap;connectable=0;fillColor=none;top=0;left=0;bottom=0;right=0;overflow=hidden;pointerEvents=1;fontSize=15;" parent="rxuDzsYk6l3-nFHS3t-N-22" vertex="1">
                    <mxGeometry x="110" width="111" height="46" as="geometry">
                        <mxRectangle width="111" height="46" as="alternateBounds"/>
                    </mxGeometry>
                </mxCell>
                <mxCell id="rxuDzsYk6l3-nFHS3t-N-24" value="/api/todo/:id" style="shape=partialRectangle;html=1;whiteSpace=wrap;connectable=0;fillColor=none;top=0;left=0;bottom=0;right=0;overflow=hidden;pointerEvents=1;fontSize=15;" parent="rxuDzsYk6l3-nFHS3t-N-22" vertex="1">
                    <mxGeometry x="221" width="198" height="46" as="geometry">
                        <mxRectangle width="198" height="46" as="alternateBounds"/>
                    </mxGeometry>
                </mxCell>
                <mxCell id="rxuDzsYk6l3-nFHS3t-N-25" value="-" style="shape=partialRectangle;html=1;whiteSpace=wrap;connectable=0;fillColor=none;top=0;left=0;bottom=0;right=0;overflow=hidden;pointerEvents=1;fontSize=15;" parent="rxuDzsYk6l3-nFHS3t-N-22" vertex="1">
                    <mxGeometry x="419" width="261" height="46" as="geometry">
                        <mxRectangle width="261" height="46" as="alternateBounds"/>
                    </mxGeometry>
                </mxCell>
                <mxCell id="rxuDzsYk6l3-nFHS3t-N-26" value="" style="shape=partialRectangle;html=1;whiteSpace=wrap;collapsible=0;dropTarget=0;pointerEvents=0;fillColor=none;top=0;left=0;bottom=0;right=0;points=[[0,0.5],[1,0.5]];portConstraint=eastwest;" parent="rxuDzsYk6l3-nFHS3t-N-17" vertex="1">
                    <mxGeometry y="122" width="680" height="46" as="geometry"/>
                </mxCell>
                <mxCell id="rxuDzsYk6l3-nFHS3t-N-44" value="Create todo" style="shape=partialRectangle;html=1;whiteSpace=wrap;connectable=0;fillColor=none;top=0;left=0;bottom=0;right=0;overflow=hidden;pointerEvents=1;fontSize=15;" parent="rxuDzsYk6l3-nFHS3t-N-26" vertex="1">
                    <mxGeometry width="110" height="46" as="geometry">
                        <mxRectangle width="110" height="46" as="alternateBounds"/>
                    </mxGeometry>
                </mxCell>
                <mxCell id="rxuDzsYk6l3-nFHS3t-N-27" value="POST" style="shape=partialRectangle;html=1;whiteSpace=wrap;connectable=0;fillColor=none;top=0;left=0;bottom=0;right=0;overflow=hidden;pointerEvents=1;fontSize=15;" parent="rxuDzsYk6l3-nFHS3t-N-26" vertex="1">
                    <mxGeometry x="110" width="111" height="46" as="geometry">
                        <mxRectangle width="111" height="46" as="alternateBounds"/>
                    </mxGeometry>
                </mxCell>
                <mxCell id="rxuDzsYk6l3-nFHS3t-N-28" value="&lt;span&gt;/api/todo&lt;/span&gt;" style="shape=partialRectangle;html=1;whiteSpace=wrap;connectable=0;fillColor=none;top=0;left=0;bottom=0;right=0;overflow=hidden;pointerEvents=1;fontSize=15;" parent="rxuDzsYk6l3-nFHS3t-N-26" vertex="1">
                    <mxGeometry x="221" width="198" height="46" as="geometry">
                        <mxRectangle width="198" height="46" as="alternateBounds"/>
                    </mxGeometry>
                </mxCell>
                <mxCell id="rxuDzsYk6l3-nFHS3t-N-29" value="{title:string, content:string}" style="shape=partialRectangle;html=1;whiteSpace=wrap;connectable=0;fillColor=none;top=0;left=0;bottom=0;right=0;overflow=hidden;pointerEvents=1;fontSize=15;" parent="rxuDzsYk6l3-nFHS3t-N-26" vertex="1">
                    <mxGeometry x="419" width="261" height="46" as="geometry">
                        <mxRectangle width="261" height="46" as="alternateBounds"/>
                    </mxGeometry>
                </mxCell>
                <mxCell id="rxuDzsYk6l3-nFHS3t-N-30" style="shape=partialRectangle;html=1;whiteSpace=wrap;collapsible=0;dropTarget=0;pointerEvents=0;fillColor=none;top=0;left=0;bottom=0;right=0;points=[[0,0.5],[1,0.5]];portConstraint=eastwest;" parent="rxuDzsYk6l3-nFHS3t-N-17" vertex="1">
                    <mxGeometry y="168" width="680" height="46" as="geometry"/>
                </mxCell>
                <mxCell id="rxuDzsYk6l3-nFHS3t-N-45" value="Update todo" style="shape=partialRectangle;html=1;whiteSpace=wrap;connectable=0;fillColor=none;top=0;left=0;bottom=0;right=0;overflow=hidden;pointerEvents=1;fontSize=15;" parent="rxuDzsYk6l3-nFHS3t-N-30" vertex="1">
                    <mxGeometry width="110" height="46" as="geometry">
                        <mxRectangle width="110" height="46" as="alternateBounds"/>
                    </mxGeometry>
                </mxCell>
                <mxCell id="rxuDzsYk6l3-nFHS3t-N-31" value="PUT" style="shape=partialRectangle;html=1;whiteSpace=wrap;connectable=0;fillColor=none;top=0;left=0;bottom=0;right=0;overflow=hidden;pointerEvents=1;fontSize=15;" parent="rxuDzsYk6l3-nFHS3t-N-30" vertex="1">
                    <mxGeometry x="110" width="111" height="46" as="geometry">
                        <mxRectangle width="111" height="46" as="alternateBounds"/>
                    </mxGeometry>
                </mxCell>
                <mxCell id="rxuDzsYk6l3-nFHS3t-N-32" value="/api/todo/:id" style="shape=partialRectangle;html=1;whiteSpace=wrap;connectable=0;fillColor=none;top=0;left=0;bottom=0;right=0;overflow=hidden;pointerEvents=1;fontSize=15;" parent="rxuDzsYk6l3-nFHS3t-N-30" vertex="1">
                    <mxGeometry x="221" width="198" height="46" as="geometry">
                        <mxRectangle width="198" height="46" as="alternateBounds"/>
                    </mxGeometry>
                </mxCell>
                <mxCell id="rxuDzsYk6l3-nFHS3t-N-33" value="{title:string, content:string}" style="shape=partialRectangle;html=1;whiteSpace=wrap;connectable=0;fillColor=none;top=0;left=0;bottom=0;right=0;overflow=hidden;pointerEvents=1;fontSize=15;" parent="rxuDzsYk6l3-nFHS3t-N-30" vertex="1">
                    <mxGeometry x="419" width="261" height="46" as="geometry">
                        <mxRectangle width="261" height="46" as="alternateBounds"/>
                    </mxGeometry>
                </mxCell>
                <mxCell id="rtRRFgjXTYYZUIerYxhb-0" style="shape=partialRectangle;html=1;whiteSpace=wrap;collapsible=0;dropTarget=0;pointerEvents=0;fillColor=none;top=0;left=0;bottom=0;right=0;points=[[0,0.5],[1,0.5]];portConstraint=eastwest;" parent="rxuDzsYk6l3-nFHS3t-N-17" vertex="1">
                    <mxGeometry y="214" width="680" height="46" as="geometry"/>
                </mxCell>
                <mxCell id="rtRRFgjXTYYZUIerYxhb-1" value="Delete todo" style="shape=partialRectangle;html=1;whiteSpace=wrap;connectable=0;fillColor=none;top=0;left=0;bottom=0;right=0;overflow=hidden;pointerEvents=1;fontSize=15;" parent="rtRRFgjXTYYZUIerYxhb-0" vertex="1">
                    <mxGeometry width="110" height="46" as="geometry">
                        <mxRectangle width="110" height="46" as="alternateBounds"/>
                    </mxGeometry>
                </mxCell>
                <mxCell id="rtRRFgjXTYYZUIerYxhb-2" value="DELETE" style="shape=partialRectangle;html=1;whiteSpace=wrap;connectable=0;fillColor=none;top=0;left=0;bottom=0;right=0;overflow=hidden;pointerEvents=1;fontSize=15;" parent="rtRRFgjXTYYZUIerYxhb-0" vertex="1">
                    <mxGeometry x="110" width="111" height="46" as="geometry">
                        <mxRectangle width="111" height="46" as="alternateBounds"/>
                    </mxGeometry>
                </mxCell>
                <mxCell id="rtRRFgjXTYYZUIerYxhb-3" value="/api/todo/:id" style="shape=partialRectangle;html=1;whiteSpace=wrap;connectable=0;fillColor=none;top=0;left=0;bottom=0;right=0;overflow=hidden;pointerEvents=1;fontSize=15;" parent="rtRRFgjXTYYZUIerYxhb-0" vertex="1">
                    <mxGeometry x="221" width="198" height="46" as="geometry">
                        <mxRectangle width="198" height="46" as="alternateBounds"/>
                    </mxGeometry>
                </mxCell>
                <mxCell id="rtRRFgjXTYYZUIerYxhb-4" style="shape=partialRectangle;html=1;whiteSpace=wrap;connectable=0;fillColor=none;top=0;left=0;bottom=0;right=0;overflow=hidden;pointerEvents=1;fontSize=15;" parent="rtRRFgjXTYYZUIerYxhb-0" vertex="1">
                    <mxGeometry x="419" width="261" height="46" as="geometry">
                        <mxRectangle width="261" height="46" as="alternateBounds"/>
                    </mxGeometry>
                </mxCell>
                <mxCell id="25cto-z_pGGvBRUPymMC-33" value="auth" style="swimlane;shadow=0;fontSize=18;fillColor=#fff2cc;strokeColor=#d6b656;" parent="o2rCxQrs2q715OUxCT-L-1" vertex="1">
                    <mxGeometry x="770" y="30" width="230" height="340" as="geometry">
                        <mxRectangle x="100" y="310" width="190" height="30" as="alternateBounds"/>
                    </mxGeometry>
                </mxCell>
                <mxCell id="o2rCxQrs2q715OUxCT-L-52" value="User" style="shape=table;startSize=30;container=1;collapsible=0;childLayout=tableLayout;fontStyle=1;align=center;pointerEvents=1;rounded=0;shadow=0;sketch=0;fontSize=20;swimlaneFillColor=none;labelBackgroundColor=none;labelBorderColor=none;fillColor=#fff2cc;strokeColor=#d6b656;" parent="25cto-z_pGGvBRUPymMC-33" vertex="1">
                    <mxGeometry x="25" y="39.5" width="190" height="123" as="geometry"/>
                </mxCell>
                <mxCell id="o2rCxQrs2q715OUxCT-L-53" value="" style="shape=partialRectangle;whiteSpace=wrap;collapsible=0;dropTarget=0;pointerEvents=0;top=0;left=0;bottom=0;right=0;points=[[0,0.5],[1,0.5]];portConstraint=eastwest;rounded=0;shadow=0;sketch=0;fontSize=12;labelBackgroundColor=none;labelBorderColor=none;fillColor=#f5f5f5;fontColor=#333333;strokeColor=#666666;" parent="o2rCxQrs2q715OUxCT-L-52" vertex="1">
                    <mxGeometry y="30" width="190" height="47" as="geometry"/>
                </mxCell>
                <mxCell id="o2rCxQrs2q715OUxCT-L-65" value="email" style="shape=partialRectangle;whiteSpace=wrap;connectable=0;top=0;left=0;bottom=0;right=0;overflow=hidden;pointerEvents=1;rounded=0;shadow=0;sketch=0;fontSize=20;labelBackgroundColor=none;labelBorderColor=none;fillColor=#f5f5f5;fontColor=#333333;strokeColor=#666666;" parent="o2rCxQrs2q715OUxCT-L-53" vertex="1">
                    <mxGeometry width="90" height="47" as="geometry">
                        <mxRectangle width="90" height="47" as="alternateBounds"/>
                    </mxGeometry>
                </mxCell>
                <mxCell id="o2rCxQrs2q715OUxCT-L-54" value="string" style="shape=partialRectangle;whiteSpace=wrap;connectable=0;top=0;left=0;bottom=0;right=0;overflow=hidden;pointerEvents=1;rounded=0;shadow=0;sketch=0;fontSize=20;labelBackgroundColor=none;labelBorderColor=none;fillColor=#f5f5f5;fontColor=#333333;strokeColor=#666666;" parent="o2rCxQrs2q715OUxCT-L-53" vertex="1">
                    <mxGeometry x="90" width="100" height="47" as="geometry">
                        <mxRectangle width="100" height="47" as="alternateBounds"/>
                    </mxGeometry>
                </mxCell>
                <mxCell id="o2rCxQrs2q715OUxCT-L-57" value="" style="shape=partialRectangle;whiteSpace=wrap;collapsible=0;dropTarget=0;pointerEvents=0;top=0;left=0;bottom=0;right=0;points=[[0,0.5],[1,0.5]];portConstraint=eastwest;rounded=0;shadow=0;sketch=0;fontSize=12;labelBackgroundColor=none;labelBorderColor=none;fillColor=#f5f5f5;fontColor=#333333;strokeColor=#666666;" parent="o2rCxQrs2q715OUxCT-L-52" vertex="1">
                    <mxGeometry y="77" width="190" height="46" as="geometry"/>
                </mxCell>
                <mxCell id="o2rCxQrs2q715OUxCT-L-66" value="password" style="shape=partialRectangle;whiteSpace=wrap;connectable=0;top=0;left=0;bottom=0;right=0;overflow=hidden;pointerEvents=1;rounded=0;shadow=0;sketch=0;fontSize=20;labelBackgroundColor=none;labelBorderColor=none;fillColor=#f5f5f5;fontColor=#333333;strokeColor=#666666;" parent="o2rCxQrs2q715OUxCT-L-57" vertex="1">
                    <mxGeometry width="90" height="46" as="geometry">
                        <mxRectangle width="90" height="46" as="alternateBounds"/>
                    </mxGeometry>
                </mxCell>
                <mxCell id="o2rCxQrs2q715OUxCT-L-58" value="string" style="shape=partialRectangle;whiteSpace=wrap;connectable=0;top=0;left=0;bottom=0;right=0;overflow=hidden;pointerEvents=1;rounded=0;shadow=0;sketch=0;fontSize=20;labelBackgroundColor=none;labelBorderColor=none;fillColor=#f5f5f5;fontColor=#333333;strokeColor=#666666;" parent="o2rCxQrs2q715OUxCT-L-57" vertex="1">
                    <mxGeometry x="90" width="100" height="46" as="geometry">
                        <mxRectangle width="100" height="46" as="alternateBounds"/>
                    </mxGeometry>
                </mxCell>
                <mxCell id="25cto-z_pGGvBRUPymMC-34" value="Comment" style="swimlane;shadow=0;fontSize=18;fillColor=#e1d5e7;strokeColor=#9673a6;" parent="o2rCxQrs2q715OUxCT-L-1" vertex="1">
                    <mxGeometry x="1040" y="390" width="260" height="370" as="geometry"/>
                </mxCell>
                <mxCell id="25cto-z_pGGvBRUPymMC-0" value="Comment" style="shape=table;startSize=30;container=1;collapsible=0;childLayout=tableLayout;fontStyle=1;align=center;pointerEvents=1;rounded=0;shadow=0;sketch=0;fontSize=20;swimlaneFillColor=none;labelBackgroundColor=none;labelBorderColor=none;fillColor=#e1d5e7;strokeColor=#9673a6;" parent="25cto-z_pGGvBRUPymMC-34" vertex="1">
                    <mxGeometry x="25" y="39.5" width="210" height="180.5" as="geometry"/>
                </mxCell>
                <mxCell id="25cto-z_pGGvBRUPymMC-1" value="" style="shape=partialRectangle;whiteSpace=wrap;collapsible=0;dropTarget=0;pointerEvents=0;top=0;left=0;bottom=0;right=0;points=[[0,0.5],[1,0.5]];portConstraint=eastwest;rounded=0;shadow=0;sketch=0;fontSize=12;labelBackgroundColor=none;labelBorderColor=none;fillColor=#f5f5f5;fontColor=#333333;strokeColor=#666666;" parent="25cto-z_pGGvBRUPymMC-0" vertex="1">
                    <mxGeometry y="30" width="210" height="39" as="geometry"/>
                </mxCell>
                <mxCell id="25cto-z_pGGvBRUPymMC-2" value="todoId" style="shape=partialRectangle;whiteSpace=wrap;connectable=0;top=0;left=0;bottom=0;right=0;overflow=hidden;pointerEvents=1;rounded=0;shadow=0;sketch=0;fontSize=20;labelBackgroundColor=none;labelBorderColor=none;fillColor=#f5f5f5;fontColor=#333333;strokeColor=#666666;" parent="25cto-z_pGGvBRUPymMC-1" vertex="1">
                    <mxGeometry width="105" height="39" as="geometry">
                        <mxRectangle width="105" height="39" as="alternateBounds"/>
                    </mxGeometry>
                </mxCell>
                <mxCell id="25cto-z_pGGvBRUPymMC-3" value="string" style="shape=partialRectangle;whiteSpace=wrap;connectable=0;top=0;left=0;bottom=0;right=0;overflow=hidden;pointerEvents=1;rounded=0;shadow=0;sketch=0;fontSize=20;labelBackgroundColor=none;labelBorderColor=none;fillColor=#f5f5f5;fontColor=#333333;strokeColor=#666666;" parent="25cto-z_pGGvBRUPymMC-1" vertex="1">
                    <mxGeometry x="105" width="105" height="39" as="geometry">
                        <mxRectangle width="105" height="39" as="alternateBounds"/>
                    </mxGeometry>
                </mxCell>
                <mxCell id="25cto-z_pGGvBRUPymMC-26" style="shape=partialRectangle;whiteSpace=wrap;collapsible=0;dropTarget=0;pointerEvents=0;top=0;left=0;bottom=0;right=0;points=[[0,0.5],[1,0.5]];portConstraint=eastwest;rounded=0;shadow=0;sketch=0;fontSize=12;labelBackgroundColor=none;labelBorderColor=none;fillColor=#f5f5f5;fontColor=#333333;strokeColor=#666666;" parent="25cto-z_pGGvBRUPymMC-0" vertex="1">
                    <mxGeometry y="69" width="210" height="35" as="geometry"/>
                </mxCell>
                <mxCell id="25cto-z_pGGvBRUPymMC-27" value="userId" style="shape=partialRectangle;whiteSpace=wrap;connectable=0;top=0;left=0;bottom=0;right=0;overflow=hidden;pointerEvents=1;rounded=0;shadow=0;sketch=0;fontSize=20;labelBackgroundColor=none;labelBorderColor=none;fillColor=#f5f5f5;fontColor=#333333;strokeColor=#666666;" parent="25cto-z_pGGvBRUPymMC-26" vertex="1">
                    <mxGeometry width="105" height="35" as="geometry">
                        <mxRectangle width="105" height="35" as="alternateBounds"/>
                    </mxGeometry>
                </mxCell>
                <mxCell id="25cto-z_pGGvBRUPymMC-28" value="string" style="shape=partialRectangle;whiteSpace=wrap;connectable=0;top=0;left=0;bottom=0;right=0;overflow=hidden;pointerEvents=1;rounded=0;shadow=0;sketch=0;fontSize=20;labelBackgroundColor=none;labelBorderColor=none;fillColor=#f5f5f5;fontColor=#333333;strokeColor=#666666;" parent="25cto-z_pGGvBRUPymMC-26" vertex="1">
                    <mxGeometry x="105" width="105" height="35" as="geometry">
                        <mxRectangle width="105" height="35" as="alternateBounds"/>
                    </mxGeometry>
                </mxCell>
                <mxCell id="25cto-z_pGGvBRUPymMC-7" style="shape=partialRectangle;whiteSpace=wrap;collapsible=0;dropTarget=0;pointerEvents=0;top=0;left=0;bottom=0;right=0;points=[[0,0.5],[1,0.5]];portConstraint=eastwest;rounded=0;shadow=0;sketch=0;fontSize=12;labelBackgroundColor=none;labelBorderColor=none;fillColor=#f5f5f5;fontColor=#333333;strokeColor=#666666;" parent="25cto-z_pGGvBRUPymMC-0" vertex="1">
                    <mxGeometry y="104" width="210" height="42" as="geometry"/>
                </mxCell>
                <mxCell id="25cto-z_pGGvBRUPymMC-8" value="createdAt" style="shape=partialRectangle;whiteSpace=wrap;connectable=0;top=0;left=0;bottom=0;right=0;overflow=hidden;pointerEvents=1;rounded=0;shadow=0;sketch=0;fontSize=20;labelBackgroundColor=none;labelBorderColor=none;fillColor=#f5f5f5;fontColor=#333333;strokeColor=#666666;" parent="25cto-z_pGGvBRUPymMC-7" vertex="1">
                    <mxGeometry width="105" height="42" as="geometry">
                        <mxRectangle width="105" height="42" as="alternateBounds"/>
                    </mxGeometry>
                </mxCell>
                <mxCell id="25cto-z_pGGvBRUPymMC-9" value="string" style="shape=partialRectangle;whiteSpace=wrap;connectable=0;top=0;left=0;bottom=0;right=0;overflow=hidden;pointerEvents=1;rounded=0;shadow=0;sketch=0;fontSize=20;labelBackgroundColor=none;labelBorderColor=none;fillColor=#f5f5f5;fontColor=#333333;strokeColor=#666666;" parent="25cto-z_pGGvBRUPymMC-7" vertex="1">
                    <mxGeometry x="105" width="105" height="42" as="geometry">
                        <mxRectangle width="105" height="42" as="alternateBounds"/>
                    </mxGeometry>
                </mxCell>
                <mxCell id="25cto-z_pGGvBRUPymMC-4" value="" style="shape=partialRectangle;whiteSpace=wrap;collapsible=0;dropTarget=0;pointerEvents=0;top=0;left=0;bottom=0;right=0;points=[[0,0.5],[1,0.5]];portConstraint=eastwest;rounded=0;shadow=0;sketch=0;fontSize=12;labelBackgroundColor=none;labelBorderColor=none;fillColor=#f5f5f5;fontColor=#333333;strokeColor=#666666;" parent="25cto-z_pGGvBRUPymMC-0" vertex="1">
                    <mxGeometry y="146" width="210" height="35" as="geometry"/>
                </mxCell>
                <mxCell id="25cto-z_pGGvBRUPymMC-5" value="content" style="shape=partialRectangle;whiteSpace=wrap;connectable=0;top=0;left=0;bottom=0;right=0;overflow=hidden;pointerEvents=1;rounded=0;shadow=0;sketch=0;fontSize=20;labelBackgroundColor=none;labelBorderColor=none;fillColor=#f5f5f5;fontColor=#333333;strokeColor=#666666;" parent="25cto-z_pGGvBRUPymMC-4" vertex="1">
                    <mxGeometry width="105" height="35" as="geometry">
                        <mxRectangle width="105" height="35" as="alternateBounds"/>
                    </mxGeometry>
                </mxCell>
                <mxCell id="25cto-z_pGGvBRUPymMC-6" value="string" style="shape=partialRectangle;whiteSpace=wrap;connectable=0;top=0;left=0;bottom=0;right=0;overflow=hidden;pointerEvents=1;rounded=0;shadow=0;sketch=0;fontSize=20;labelBackgroundColor=none;labelBorderColor=none;fillColor=#f5f5f5;fontColor=#333333;strokeColor=#666666;" parent="25cto-z_pGGvBRUPymMC-4" vertex="1">
                    <mxGeometry x="105" width="105" height="35" as="geometry">
                        <mxRectangle width="105" height="35" as="alternateBounds"/>
                    </mxGeometry>
                </mxCell>
                <mxCell id="_4CfLQ0V76cyszic2F12-0" value="Todo" style="shape=table;startSize=30;container=1;collapsible=0;childLayout=tableLayout;fontStyle=1;align=center;pointerEvents=1;rounded=0;shadow=0;sketch=0;fontSize=20;swimlaneFillColor=none;labelBackgroundColor=none;labelBorderColor=none;fillColor=#e1d5e7;strokeColor=#9673a6;" parent="25cto-z_pGGvBRUPymMC-34" vertex="1">
                    <mxGeometry x="25" y="240" width="210" height="69" as="geometry"/>
                </mxCell>
                <mxCell id="_4CfLQ0V76cyszic2F12-1" value="" style="shape=partialRectangle;whiteSpace=wrap;collapsible=0;dropTarget=0;pointerEvents=0;top=0;left=0;bottom=0;right=0;points=[[0,0.5],[1,0.5]];portConstraint=eastwest;rounded=0;shadow=0;sketch=0;fontSize=12;labelBackgroundColor=none;labelBorderColor=none;fillColor=#f5f5f5;fontColor=#333333;strokeColor=#666666;" parent="_4CfLQ0V76cyszic2F12-0" vertex="1">
                    <mxGeometry y="30" width="210" height="39" as="geometry"/>
                </mxCell>
                <mxCell id="_4CfLQ0V76cyszic2F12-2" value="_id" style="shape=partialRectangle;whiteSpace=wrap;connectable=0;top=0;left=0;bottom=0;right=0;overflow=hidden;pointerEvents=1;rounded=0;shadow=0;sketch=0;fontSize=20;labelBackgroundColor=none;labelBorderColor=none;fillColor=#f5f5f5;fontColor=#333333;strokeColor=#666666;" parent="_4CfLQ0V76cyszic2F12-1" vertex="1">
                    <mxGeometry width="105" height="39" as="geometry">
                        <mxRectangle width="105" height="39" as="alternateBounds"/>
                    </mxGeometry>
                </mxCell>
                <mxCell id="_4CfLQ0V76cyszic2F12-3" value="string" style="shape=partialRectangle;whiteSpace=wrap;connectable=0;top=0;left=0;bottom=0;right=0;overflow=hidden;pointerEvents=1;rounded=0;shadow=0;sketch=0;fontSize=20;labelBackgroundColor=none;labelBorderColor=none;fillColor=#f5f5f5;fontColor=#333333;strokeColor=#666666;" parent="_4CfLQ0V76cyszic2F12-1" vertex="1">
                    <mxGeometry x="105" width="105" height="39" as="geometry">
                        <mxRectangle width="105" height="39" as="alternateBounds"/>
                    </mxGeometry>
                </mxCell>
                <mxCell id="25cto-z_pGGvBRUPymMC-35" value="Todo" style="swimlane;shadow=0;fontSize=18;fillColor=#f8cecc;strokeColor=#b85450;" parent="o2rCxQrs2q715OUxCT-L-1" vertex="1">
                    <mxGeometry x="765" y="390" width="250" height="370" as="geometry"/>
                </mxCell>
                <mxCell id="o2rCxQrs2q715OUxCT-L-68" value="Todo" style="shape=table;startSize=30;container=1;collapsible=0;childLayout=tableLayout;fontStyle=1;align=center;pointerEvents=1;rounded=0;shadow=0;sketch=0;fontSize=20;swimlaneFillColor=none;labelBackgroundColor=none;labelBorderColor=none;fillColor=#f8cecc;strokeColor=#b85450;" parent="25cto-z_pGGvBRUPymMC-35" vertex="1">
                    <mxGeometry x="19" y="39.5" width="210" height="292.5" as="geometry"/>
                </mxCell>
                <mxCell id="o2rCxQrs2q715OUxCT-L-69" value="" style="shape=partialRectangle;whiteSpace=wrap;collapsible=0;dropTarget=0;pointerEvents=0;top=0;left=0;bottom=0;right=0;points=[[0,0.5],[1,0.5]];portConstraint=eastwest;rounded=0;shadow=0;sketch=0;fontSize=12;labelBackgroundColor=none;labelBorderColor=none;fillColor=#f5f5f5;fontColor=#333333;strokeColor=#666666;" parent="o2rCxQrs2q715OUxCT-L-68" vertex="1">
                    <mxGeometry y="30" width="210" height="39" as="geometry"/>
                </mxCell>
                <mxCell id="o2rCxQrs2q715OUxCT-L-70" value="title" style="shape=partialRectangle;whiteSpace=wrap;connectable=0;top=0;left=0;bottom=0;right=0;overflow=hidden;pointerEvents=1;rounded=0;shadow=0;sketch=0;fontSize=20;labelBackgroundColor=none;labelBorderColor=none;fillColor=#f5f5f5;fontColor=#333333;strokeColor=#666666;" parent="o2rCxQrs2q715OUxCT-L-69" vertex="1">
                    <mxGeometry width="121" height="39" as="geometry">
                        <mxRectangle width="121" height="39" as="alternateBounds"/>
                    </mxGeometry>
                </mxCell>
                <mxCell id="o2rCxQrs2q715OUxCT-L-71" value="string" style="shape=partialRectangle;whiteSpace=wrap;connectable=0;top=0;left=0;bottom=0;right=0;overflow=hidden;pointerEvents=1;rounded=0;shadow=0;sketch=0;fontSize=20;labelBackgroundColor=none;labelBorderColor=none;fillColor=#f5f5f5;fontColor=#333333;strokeColor=#666666;" parent="o2rCxQrs2q715OUxCT-L-69" vertex="1">
                    <mxGeometry x="121" width="89" height="39" as="geometry">
                        <mxRectangle width="89" height="39" as="alternateBounds"/>
                    </mxGeometry>
                </mxCell>
                <mxCell id="o2rCxQrs2q715OUxCT-L-72" value="" style="shape=partialRectangle;whiteSpace=wrap;collapsible=0;dropTarget=0;pointerEvents=0;top=0;left=0;bottom=0;right=0;points=[[0,0.5],[1,0.5]];portConstraint=eastwest;rounded=0;shadow=0;sketch=0;fontSize=12;labelBackgroundColor=none;labelBorderColor=none;fillColor=#f5f5f5;fontColor=#333333;strokeColor=#666666;" parent="o2rCxQrs2q715OUxCT-L-68" vertex="1">
                    <mxGeometry y="69" width="210" height="35" as="geometry"/>
                </mxCell>
                <mxCell id="o2rCxQrs2q715OUxCT-L-73" value="content" style="shape=partialRectangle;whiteSpace=wrap;connectable=0;top=0;left=0;bottom=0;right=0;overflow=hidden;pointerEvents=1;rounded=0;shadow=0;sketch=0;fontSize=20;labelBackgroundColor=none;labelBorderColor=none;fillColor=#f5f5f5;fontColor=#333333;strokeColor=#666666;" parent="o2rCxQrs2q715OUxCT-L-72" vertex="1">
                    <mxGeometry width="121" height="35" as="geometry">
                        <mxRectangle width="121" height="35" as="alternateBounds"/>
                    </mxGeometry>
                </mxCell>
                <mxCell id="o2rCxQrs2q715OUxCT-L-74" value="string" style="shape=partialRectangle;whiteSpace=wrap;connectable=0;top=0;left=0;bottom=0;right=0;overflow=hidden;pointerEvents=1;rounded=0;shadow=0;sketch=0;fontSize=20;labelBackgroundColor=none;labelBorderColor=none;fillColor=#f5f5f5;fontColor=#333333;strokeColor=#666666;" parent="o2rCxQrs2q715OUxCT-L-72" vertex="1">
                    <mxGeometry x="121" width="89" height="35" as="geometry">
                        <mxRectangle width="89" height="35" as="alternateBounds"/>
                    </mxGeometry>
                </mxCell>
                <mxCell id="o2rCxQrs2q715OUxCT-L-75" style="shape=partialRectangle;whiteSpace=wrap;collapsible=0;dropTarget=0;pointerEvents=0;top=0;left=0;bottom=0;right=0;points=[[0,0.5],[1,0.5]];portConstraint=eastwest;rounded=0;shadow=0;sketch=0;fontSize=12;labelBackgroundColor=none;labelBorderColor=none;fillColor=#f5f5f5;fontColor=#333333;strokeColor=#666666;" parent="o2rCxQrs2q715OUxCT-L-68" vertex="1">
                    <mxGeometry y="104" width="210" height="37" as="geometry"/>
                </mxCell>
                <mxCell id="o2rCxQrs2q715OUxCT-L-76" value="userId" style="shape=partialRectangle;whiteSpace=wrap;connectable=0;top=0;left=0;bottom=0;right=0;overflow=hidden;pointerEvents=1;rounded=0;shadow=0;sketch=0;fontSize=20;labelBackgroundColor=none;labelBorderColor=none;fillColor=#f5f5f5;fontColor=#333333;strokeColor=#666666;" parent="o2rCxQrs2q715OUxCT-L-75" vertex="1">
                    <mxGeometry width="121" height="37" as="geometry">
                        <mxRectangle width="121" height="37" as="alternateBounds"/>
                    </mxGeometry>
                </mxCell>
                <mxCell id="o2rCxQrs2q715OUxCT-L-77" value="string" style="shape=partialRectangle;whiteSpace=wrap;connectable=0;top=0;left=0;bottom=0;right=0;overflow=hidden;pointerEvents=1;rounded=0;shadow=0;sketch=0;fontSize=20;labelBackgroundColor=none;labelBorderColor=none;fillColor=#f5f5f5;fontColor=#333333;strokeColor=#666666;" parent="o2rCxQrs2q715OUxCT-L-75" vertex="1">
                    <mxGeometry x="121" width="89" height="37" as="geometry">
                        <mxRectangle width="89" height="37" as="alternateBounds"/>
                    </mxGeometry>
                </mxCell>
                <mxCell id="piiGVLoHhksso8CYTRYM-14" style="shape=partialRectangle;whiteSpace=wrap;collapsible=0;dropTarget=0;pointerEvents=0;top=0;left=0;bottom=0;right=0;points=[[0,0.5],[1,0.5]];portConstraint=eastwest;rounded=0;shadow=0;sketch=0;fontSize=12;labelBackgroundColor=none;labelBorderColor=none;fillColor=#f5f5f5;fontColor=#333333;strokeColor=#666666;" parent="o2rCxQrs2q715OUxCT-L-68" vertex="1">
                    <mxGeometry y="141" width="210" height="38" as="geometry"/>
                </mxCell>
                <mxCell id="piiGVLoHhksso8CYTRYM-15" value="userEmail" style="shape=partialRectangle;whiteSpace=wrap;connectable=0;top=0;left=0;bottom=0;right=0;overflow=hidden;pointerEvents=1;rounded=0;shadow=0;sketch=0;fontSize=20;labelBackgroundColor=none;labelBorderColor=none;fillColor=#f5f5f5;fontColor=#333333;strokeColor=#666666;" parent="piiGVLoHhksso8CYTRYM-14" vertex="1">
                    <mxGeometry width="121" height="38" as="geometry">
                        <mxRectangle width="121" height="38" as="alternateBounds"/>
                    </mxGeometry>
                </mxCell>
                <mxCell id="piiGVLoHhksso8CYTRYM-16" value="string" style="shape=partialRectangle;whiteSpace=wrap;connectable=0;top=0;left=0;bottom=0;right=0;overflow=hidden;pointerEvents=1;rounded=0;shadow=0;sketch=0;fontSize=20;labelBackgroundColor=none;labelBorderColor=none;fillColor=#f5f5f5;fontColor=#333333;strokeColor=#666666;" parent="piiGVLoHhksso8CYTRYM-14" vertex="1">
                    <mxGeometry x="121" width="89" height="38" as="geometry">
                        <mxRectangle width="89" height="38" as="alternateBounds"/>
                    </mxGeometry>
                </mxCell>
                <mxCell id="piiGVLoHhksso8CYTRYM-17" style="shape=partialRectangle;whiteSpace=wrap;collapsible=0;dropTarget=0;pointerEvents=0;top=0;left=0;bottom=0;right=0;points=[[0,0.5],[1,0.5]];portConstraint=eastwest;rounded=0;shadow=0;sketch=0;fontSize=12;labelBackgroundColor=none;labelBorderColor=none;fillColor=#f5f5f5;fontColor=#333333;strokeColor=#666666;" parent="o2rCxQrs2q715OUxCT-L-68" vertex="1">
                    <mxGeometry y="179" width="210" height="38" as="geometry"/>
                </mxCell>
                <mxCell id="piiGVLoHhksso8CYTRYM-18" value="createdAt" style="shape=partialRectangle;whiteSpace=wrap;connectable=0;top=0;left=0;bottom=0;right=0;overflow=hidden;pointerEvents=1;rounded=0;shadow=0;sketch=0;fontSize=20;labelBackgroundColor=none;labelBorderColor=none;fillColor=#f5f5f5;fontColor=#333333;strokeColor=#666666;" parent="piiGVLoHhksso8CYTRYM-17" vertex="1">
                    <mxGeometry width="121" height="38" as="geometry">
                        <mxRectangle width="121" height="38" as="alternateBounds"/>
                    </mxGeometry>
                </mxCell>
                <mxCell id="piiGVLoHhksso8CYTRYM-19" value="string" style="shape=partialRectangle;whiteSpace=wrap;connectable=0;top=0;left=0;bottom=0;right=0;overflow=hidden;pointerEvents=1;rounded=0;shadow=0;sketch=0;fontSize=20;labelBackgroundColor=none;labelBorderColor=none;fillColor=#f5f5f5;fontColor=#333333;strokeColor=#666666;" parent="piiGVLoHhksso8CYTRYM-17" vertex="1">
                    <mxGeometry x="121" width="89" height="38" as="geometry">
                        <mxRectangle width="89" height="38" as="alternateBounds"/>
                    </mxGeometry>
                </mxCell>
                <mxCell id="4fwPMgFuX4U43kjxpHoq-0" style="shape=partialRectangle;whiteSpace=wrap;collapsible=0;dropTarget=0;pointerEvents=0;top=0;left=0;bottom=0;right=0;points=[[0,0.5],[1,0.5]];portConstraint=eastwest;rounded=0;shadow=0;sketch=0;fontSize=12;labelBackgroundColor=none;labelBorderColor=none;fillColor=#f5f5f5;fontColor=#333333;strokeColor=#666666;" parent="o2rCxQrs2q715OUxCT-L-68" vertex="1">
                    <mxGeometry y="217" width="210" height="38" as="geometry"/>
                </mxCell>
                <mxCell id="4fwPMgFuX4U43kjxpHoq-1" value="imageName" style="shape=partialRectangle;whiteSpace=wrap;connectable=0;top=0;left=0;bottom=0;right=0;overflow=hidden;pointerEvents=1;rounded=0;shadow=0;sketch=0;fontSize=20;labelBackgroundColor=none;labelBorderColor=none;fillColor=#f5f5f5;fontColor=#333333;strokeColor=#666666;" parent="4fwPMgFuX4U43kjxpHoq-0" vertex="1">
                    <mxGeometry width="121" height="38" as="geometry">
                        <mxRectangle width="121" height="38" as="alternateBounds"/>
                    </mxGeometry>
                </mxCell>
                <mxCell id="4fwPMgFuX4U43kjxpHoq-2" value="string" style="shape=partialRectangle;whiteSpace=wrap;connectable=0;top=0;left=0;bottom=0;right=0;overflow=hidden;pointerEvents=1;rounded=0;shadow=0;sketch=0;fontSize=20;labelBackgroundColor=none;labelBorderColor=none;fillColor=#f5f5f5;fontColor=#333333;strokeColor=#666666;" parent="4fwPMgFuX4U43kjxpHoq-0" vertex="1">
                    <mxGeometry x="121" width="89" height="38" as="geometry">
                        <mxRectangle width="89" height="38" as="alternateBounds"/>
                    </mxGeometry>
                </mxCell>
                <mxCell id="4fwPMgFuX4U43kjxpHoq-3" style="shape=partialRectangle;whiteSpace=wrap;collapsible=0;dropTarget=0;pointerEvents=0;top=0;left=0;bottom=0;right=0;points=[[0,0.5],[1,0.5]];portConstraint=eastwest;rounded=0;shadow=0;sketch=0;fontSize=12;labelBackgroundColor=none;labelBorderColor=none;fillColor=#f5f5f5;fontColor=#333333;strokeColor=#666666;" parent="o2rCxQrs2q715OUxCT-L-68" vertex="1">
                    <mxGeometry y="255" width="210" height="38" as="geometry"/>
                </mxCell>
                <mxCell id="4fwPMgFuX4U43kjxpHoq-4" value="imageUrl" style="shape=partialRectangle;whiteSpace=wrap;connectable=0;top=0;left=0;bottom=0;right=0;overflow=hidden;pointerEvents=1;rounded=0;shadow=0;sketch=0;fontSize=20;labelBackgroundColor=none;labelBorderColor=none;fillColor=#f5f5f5;fontColor=#333333;strokeColor=#666666;" parent="4fwPMgFuX4U43kjxpHoq-3" vertex="1">
                    <mxGeometry width="121" height="38" as="geometry">
                        <mxRectangle width="121" height="38" as="alternateBounds"/>
                    </mxGeometry>
                </mxCell>
                <mxCell id="4fwPMgFuX4U43kjxpHoq-5" value="string" style="shape=partialRectangle;whiteSpace=wrap;connectable=0;top=0;left=0;bottom=0;right=0;overflow=hidden;pointerEvents=1;rounded=0;shadow=0;sketch=0;fontSize=20;labelBackgroundColor=none;labelBorderColor=none;fillColor=#f5f5f5;fontColor=#333333;strokeColor=#666666;" parent="4fwPMgFuX4U43kjxpHoq-3" vertex="1">
                    <mxGeometry x="121" width="89" height="38" as="geometry">
                        <mxRectangle width="89" height="38" as="alternateBounds"/>
                    </mxGeometry>
                </mxCell>
                <mxCell id="25cto-z_pGGvBRUPymMC-36" value="Query" style="swimlane;shadow=0;fontSize=18;fillColor=#ffff88;strokeColor=#36393d;" parent="o2rCxQrs2q715OUxCT-L-1" vertex="1">
                    <mxGeometry x="750" y="789" width="550" height="380" as="geometry">
                        <mxRectangle x="820" y="40" width="80" height="30" as="alternateBounds"/>
                    </mxGeometry>
                </mxCell>
                <mxCell id="25cto-z_pGGvBRUPymMC-37" value="Todo" style="shape=table;startSize=30;container=1;collapsible=0;childLayout=tableLayout;fontStyle=1;align=center;pointerEvents=1;rounded=0;shadow=0;sketch=0;fontSize=20;swimlaneFillColor=none;labelBackgroundColor=none;labelBorderColor=none;fillColor=#ffff88;strokeColor=#36393d;" parent="25cto-z_pGGvBRUPymMC-36" vertex="1">
                    <mxGeometry x="50" y="39.5" width="250" height="332" as="geometry"/>
                </mxCell>
                <mxCell id="25cto-z_pGGvBRUPymMC-38" value="" style="shape=partialRectangle;whiteSpace=wrap;collapsible=0;dropTarget=0;pointerEvents=0;top=0;left=0;bottom=0;right=0;points=[[0,0.5],[1,0.5]];portConstraint=eastwest;rounded=0;shadow=0;sketch=0;fontSize=12;labelBackgroundColor=none;labelBorderColor=none;fillColor=#f5f5f5;fontColor=#333333;strokeColor=#666666;" parent="25cto-z_pGGvBRUPymMC-37" vertex="1">
                    <mxGeometry y="30" width="250" height="39" as="geometry"/>
                </mxCell>
                <mxCell id="25cto-z_pGGvBRUPymMC-39" value="title" style="shape=partialRectangle;whiteSpace=wrap;connectable=0;top=0;left=0;bottom=0;right=0;overflow=hidden;pointerEvents=1;rounded=0;shadow=0;sketch=0;fontSize=20;labelBackgroundColor=none;labelBorderColor=none;fillColor=#f5f5f5;fontColor=#333333;strokeColor=#666666;" parent="25cto-z_pGGvBRUPymMC-38" vertex="1">
                    <mxGeometry width="125" height="39" as="geometry">
                        <mxRectangle width="125" height="39" as="alternateBounds"/>
                    </mxGeometry>
                </mxCell>
                <mxCell id="25cto-z_pGGvBRUPymMC-40" value="string" style="shape=partialRectangle;whiteSpace=wrap;connectable=0;top=0;left=0;bottom=0;right=0;overflow=hidden;pointerEvents=1;rounded=0;shadow=0;sketch=0;fontSize=20;labelBackgroundColor=none;labelBorderColor=none;fillColor=#f5f5f5;fontColor=#333333;strokeColor=#666666;" parent="25cto-z_pGGvBRUPymMC-38" vertex="1">
                    <mxGeometry x="125" width="125" height="39" as="geometry">
                        <mxRectangle width="125" height="39" as="alternateBounds"/>
                    </mxGeometry>
                </mxCell>
                <mxCell id="25cto-z_pGGvBRUPymMC-41" value="" style="shape=partialRectangle;whiteSpace=wrap;collapsible=0;dropTarget=0;pointerEvents=0;top=0;left=0;bottom=0;right=0;points=[[0,0.5],[1,0.5]];portConstraint=eastwest;rounded=0;shadow=0;sketch=0;fontSize=12;labelBackgroundColor=none;labelBorderColor=none;fillColor=#f5f5f5;fontColor=#333333;strokeColor=#666666;" parent="25cto-z_pGGvBRUPymMC-37" vertex="1">
                    <mxGeometry y="69" width="250" height="35" as="geometry"/>
                </mxCell>
                <mxCell id="25cto-z_pGGvBRUPymMC-42" value="content" style="shape=partialRectangle;whiteSpace=wrap;connectable=0;top=0;left=0;bottom=0;right=0;overflow=hidden;pointerEvents=1;rounded=0;shadow=0;sketch=0;fontSize=20;labelBackgroundColor=none;labelBorderColor=none;fillColor=#f5f5f5;fontColor=#333333;strokeColor=#666666;" parent="25cto-z_pGGvBRUPymMC-41" vertex="1">
                    <mxGeometry width="125" height="35" as="geometry">
                        <mxRectangle width="125" height="35" as="alternateBounds"/>
                    </mxGeometry>
                </mxCell>
                <mxCell id="25cto-z_pGGvBRUPymMC-43" value="string" style="shape=partialRectangle;whiteSpace=wrap;connectable=0;top=0;left=0;bottom=0;right=0;overflow=hidden;pointerEvents=1;rounded=0;shadow=0;sketch=0;fontSize=20;labelBackgroundColor=none;labelBorderColor=none;fillColor=#f5f5f5;fontColor=#333333;strokeColor=#666666;" parent="25cto-z_pGGvBRUPymMC-41" vertex="1">
                    <mxGeometry x="125" width="125" height="35" as="geometry">
                        <mxRectangle width="125" height="35" as="alternateBounds"/>
                    </mxGeometry>
                </mxCell>
                <mxCell id="25cto-z_pGGvBRUPymMC-44" style="shape=partialRectangle;whiteSpace=wrap;collapsible=0;dropTarget=0;pointerEvents=0;top=0;left=0;bottom=0;right=0;points=[[0,0.5],[1,0.5]];portConstraint=eastwest;rounded=0;shadow=0;sketch=0;fontSize=12;labelBackgroundColor=none;labelBorderColor=none;fillColor=#f5f5f5;fontColor=#333333;strokeColor=#666666;" parent="25cto-z_pGGvBRUPymMC-37" vertex="1">
                    <mxGeometry y="104" width="250" height="38" as="geometry"/>
                </mxCell>
                <mxCell id="25cto-z_pGGvBRUPymMC-45" value="userId" style="shape=partialRectangle;whiteSpace=wrap;connectable=0;top=0;left=0;bottom=0;right=0;overflow=hidden;pointerEvents=1;rounded=0;shadow=0;sketch=0;fontSize=20;labelBackgroundColor=none;labelBorderColor=none;fillColor=#f5f5f5;fontColor=#333333;strokeColor=#666666;" parent="25cto-z_pGGvBRUPymMC-44" vertex="1">
                    <mxGeometry width="125" height="38" as="geometry">
                        <mxRectangle width="125" height="38" as="alternateBounds"/>
                    </mxGeometry>
                </mxCell>
                <mxCell id="25cto-z_pGGvBRUPymMC-46" value="string" style="shape=partialRectangle;whiteSpace=wrap;connectable=0;top=0;left=0;bottom=0;right=0;overflow=hidden;pointerEvents=1;rounded=0;shadow=0;sketch=0;fontSize=20;labelBackgroundColor=none;labelBorderColor=none;fillColor=#f5f5f5;fontColor=#333333;strokeColor=#666666;" parent="25cto-z_pGGvBRUPymMC-44" vertex="1">
                    <mxGeometry x="125" width="125" height="38" as="geometry">
                        <mxRectangle width="125" height="38" as="alternateBounds"/>
                    </mxGeometry>
                </mxCell>
                <mxCell id="25cto-z_pGGvBRUPymMC-47" style="shape=partialRectangle;whiteSpace=wrap;collapsible=0;dropTarget=0;pointerEvents=0;top=0;left=0;bottom=0;right=0;points=[[0,0.5],[1,0.5]];portConstraint=eastwest;rounded=0;shadow=0;sketch=0;fontSize=12;labelBackgroundColor=none;labelBorderColor=none;fillColor=#f5f5f5;fontColor=#333333;strokeColor=#666666;" parent="25cto-z_pGGvBRUPymMC-37" vertex="1">
                    <mxGeometry y="142" width="250" height="38" as="geometry"/>
                </mxCell>
                <mxCell id="25cto-z_pGGvBRUPymMC-48" value="userEmail" style="shape=partialRectangle;whiteSpace=wrap;connectable=0;top=0;left=0;bottom=0;right=0;overflow=hidden;pointerEvents=1;rounded=0;shadow=0;sketch=0;fontSize=20;labelBackgroundColor=none;labelBorderColor=none;fillColor=#f5f5f5;fontColor=#333333;strokeColor=#666666;" parent="25cto-z_pGGvBRUPymMC-47" vertex="1">
                    <mxGeometry width="125" height="38" as="geometry">
                        <mxRectangle width="125" height="38" as="alternateBounds"/>
                    </mxGeometry>
                </mxCell>
                <mxCell id="25cto-z_pGGvBRUPymMC-49" value="string" style="shape=partialRectangle;whiteSpace=wrap;connectable=0;top=0;left=0;bottom=0;right=0;overflow=hidden;pointerEvents=1;rounded=0;shadow=0;sketch=0;fontSize=20;labelBackgroundColor=none;labelBorderColor=none;fillColor=#f5f5f5;fontColor=#333333;strokeColor=#666666;" parent="25cto-z_pGGvBRUPymMC-47" vertex="1">
                    <mxGeometry x="125" width="125" height="38" as="geometry">
                        <mxRectangle width="125" height="38" as="alternateBounds"/>
                    </mxGeometry>
                </mxCell>
                <mxCell id="25cto-z_pGGvBRUPymMC-50" style="shape=partialRectangle;whiteSpace=wrap;collapsible=0;dropTarget=0;pointerEvents=0;top=0;left=0;bottom=0;right=0;points=[[0,0.5],[1,0.5]];portConstraint=eastwest;rounded=0;shadow=0;sketch=0;fontSize=12;labelBackgroundColor=none;labelBorderColor=none;fillColor=#f5f5f5;fontColor=#333333;strokeColor=#666666;" parent="25cto-z_pGGvBRUPymMC-37" vertex="1">
                    <mxGeometry y="180" width="250" height="38" as="geometry"/>
                </mxCell>
                <mxCell id="25cto-z_pGGvBRUPymMC-51" value="createdAt" style="shape=partialRectangle;whiteSpace=wrap;connectable=0;top=0;left=0;bottom=0;right=0;overflow=hidden;pointerEvents=1;rounded=0;shadow=0;sketch=0;fontSize=20;labelBackgroundColor=none;labelBorderColor=none;fillColor=#f5f5f5;fontColor=#333333;strokeColor=#666666;" parent="25cto-z_pGGvBRUPymMC-50" vertex="1">
                    <mxGeometry width="125" height="38" as="geometry">
                        <mxRectangle width="125" height="38" as="alternateBounds"/>
                    </mxGeometry>
                </mxCell>
                <mxCell id="25cto-z_pGGvBRUPymMC-52" value="string" style="shape=partialRectangle;whiteSpace=wrap;connectable=0;top=0;left=0;bottom=0;right=0;overflow=hidden;pointerEvents=1;rounded=0;shadow=0;sketch=0;fontSize=20;labelBackgroundColor=none;labelBorderColor=none;fillColor=#f5f5f5;fontColor=#333333;strokeColor=#666666;" parent="25cto-z_pGGvBRUPymMC-50" vertex="1">
                    <mxGeometry x="125" width="125" height="38" as="geometry">
                        <mxRectangle width="125" height="38" as="alternateBounds"/>
                    </mxGeometry>
                </mxCell>
                <mxCell id="25cto-z_pGGvBRUPymMC-53" style="shape=partialRectangle;whiteSpace=wrap;collapsible=0;dropTarget=0;pointerEvents=0;top=0;left=0;bottom=0;right=0;points=[[0,0.5],[1,0.5]];portConstraint=eastwest;rounded=0;shadow=0;sketch=0;fontSize=12;labelBackgroundColor=none;labelBorderColor=none;fillColor=#f5f5f5;fontColor=#333333;strokeColor=#666666;" parent="25cto-z_pGGvBRUPymMC-37" vertex="1">
                    <mxGeometry y="218" width="250" height="38" as="geometry"/>
                </mxCell>
                <mxCell id="25cto-z_pGGvBRUPymMC-54" value="comments" style="shape=partialRectangle;whiteSpace=wrap;connectable=0;top=0;left=0;bottom=0;right=0;overflow=hidden;pointerEvents=1;rounded=0;shadow=0;sketch=0;fontSize=20;labelBackgroundColor=none;labelBorderColor=none;fillColor=#f5f5f5;fontColor=#333333;strokeColor=#666666;" parent="25cto-z_pGGvBRUPymMC-53" vertex="1">
                    <mxGeometry width="125" height="38" as="geometry">
                        <mxRectangle width="125" height="38" as="alternateBounds"/>
                    </mxGeometry>
                </mxCell>
                <mxCell id="25cto-z_pGGvBRUPymMC-55" value="array" style="shape=partialRectangle;whiteSpace=wrap;connectable=0;top=0;left=0;bottom=0;right=0;overflow=hidden;pointerEvents=1;rounded=0;shadow=0;sketch=0;fontSize=20;labelBackgroundColor=none;labelBorderColor=none;fillColor=#f5f5f5;fontColor=#333333;strokeColor=#666666;" parent="25cto-z_pGGvBRUPymMC-53" vertex="1">
                    <mxGeometry x="125" width="125" height="38" as="geometry">
                        <mxRectangle width="125" height="38" as="alternateBounds"/>
                    </mxGeometry>
                </mxCell>
                <mxCell id="4fwPMgFuX4U43kjxpHoq-6" style="shape=partialRectangle;whiteSpace=wrap;collapsible=0;dropTarget=0;pointerEvents=0;top=0;left=0;bottom=0;right=0;points=[[0,0.5],[1,0.5]];portConstraint=eastwest;rounded=0;shadow=0;sketch=0;fontSize=12;labelBackgroundColor=none;labelBorderColor=none;fillColor=#f5f5f5;fontColor=#333333;strokeColor=#666666;" parent="25cto-z_pGGvBRUPymMC-37" vertex="1">
                    <mxGeometry y="256" width="250" height="38" as="geometry"/>
                </mxCell>
                <mxCell id="4fwPMgFuX4U43kjxpHoq-7" value="imageName" style="shape=partialRectangle;whiteSpace=wrap;connectable=0;top=0;left=0;bottom=0;right=0;overflow=hidden;pointerEvents=1;rounded=0;shadow=0;sketch=0;fontSize=20;labelBackgroundColor=none;labelBorderColor=none;fillColor=#f5f5f5;fontColor=#333333;strokeColor=#666666;" parent="4fwPMgFuX4U43kjxpHoq-6" vertex="1">
                    <mxGeometry width="125" height="38" as="geometry">
                        <mxRectangle width="125" height="38" as="alternateBounds"/>
                    </mxGeometry>
                </mxCell>
                <mxCell id="4fwPMgFuX4U43kjxpHoq-8" value="string" style="shape=partialRectangle;whiteSpace=wrap;connectable=0;top=0;left=0;bottom=0;right=0;overflow=hidden;pointerEvents=1;rounded=0;shadow=0;sketch=0;fontSize=20;labelBackgroundColor=none;labelBorderColor=none;fillColor=#f5f5f5;fontColor=#333333;strokeColor=#666666;" parent="4fwPMgFuX4U43kjxpHoq-6" vertex="1">
                    <mxGeometry x="125" width="125" height="38" as="geometry">
                        <mxRectangle width="125" height="38" as="alternateBounds"/>
                    </mxGeometry>
                </mxCell>
                <mxCell id="4fwPMgFuX4U43kjxpHoq-9" style="shape=partialRectangle;whiteSpace=wrap;collapsible=0;dropTarget=0;pointerEvents=0;top=0;left=0;bottom=0;right=0;points=[[0,0.5],[1,0.5]];portConstraint=eastwest;rounded=0;shadow=0;sketch=0;fontSize=12;labelBackgroundColor=none;labelBorderColor=none;fillColor=#f5f5f5;fontColor=#333333;strokeColor=#666666;" parent="25cto-z_pGGvBRUPymMC-37" vertex="1">
                    <mxGeometry y="294" width="250" height="38" as="geometry"/>
                </mxCell>
                <mxCell id="4fwPMgFuX4U43kjxpHoq-10" value="imageUrl" style="shape=partialRectangle;whiteSpace=wrap;connectable=0;top=0;left=0;bottom=0;right=0;overflow=hidden;pointerEvents=1;rounded=0;shadow=0;sketch=0;fontSize=20;labelBackgroundColor=none;labelBorderColor=none;fillColor=#f5f5f5;fontColor=#333333;strokeColor=#666666;" parent="4fwPMgFuX4U43kjxpHoq-9" vertex="1">
                    <mxGeometry width="125" height="38" as="geometry">
                        <mxRectangle width="125" height="38" as="alternateBounds"/>
                    </mxGeometry>
                </mxCell>
                <mxCell id="4fwPMgFuX4U43kjxpHoq-11" value="string" style="shape=partialRectangle;whiteSpace=wrap;connectable=0;top=0;left=0;bottom=0;right=0;overflow=hidden;pointerEvents=1;rounded=0;shadow=0;sketch=0;fontSize=20;labelBackgroundColor=none;labelBorderColor=none;fillColor=#f5f5f5;fontColor=#333333;strokeColor=#666666;" parent="4fwPMgFuX4U43kjxpHoq-9" vertex="1">
                    <mxGeometry x="125" width="125" height="38" as="geometry">
                        <mxRectangle width="125" height="38" as="alternateBounds"/>
                    </mxGeometry>
                </mxCell>
                <mxCell id="25cto-z_pGGvBRUPymMC-57" value="Comment" style="shape=table;startSize=30;container=1;collapsible=0;childLayout=tableLayout;fontStyle=1;align=center;pointerEvents=1;rounded=0;shadow=0;sketch=0;fontSize=20;swimlaneFillColor=none;labelBackgroundColor=none;labelBorderColor=none;fillColor=#ffff88;strokeColor=#36393d;" parent="25cto-z_pGGvBRUPymMC-36" vertex="1">
                    <mxGeometry x="316" y="39.5" width="210" height="180.5" as="geometry"/>
                </mxCell>
                <mxCell id="25cto-z_pGGvBRUPymMC-58" value="" style="shape=partialRectangle;whiteSpace=wrap;collapsible=0;dropTarget=0;pointerEvents=0;top=0;left=0;bottom=0;right=0;points=[[0,0.5],[1,0.5]];portConstraint=eastwest;rounded=0;shadow=0;sketch=0;fontSize=12;labelBackgroundColor=none;labelBorderColor=none;fillColor=#f5f5f5;fontColor=#333333;strokeColor=#666666;" parent="25cto-z_pGGvBRUPymMC-57" vertex="1">
                    <mxGeometry y="30" width="210" height="39" as="geometry"/>
                </mxCell>
                <mxCell id="25cto-z_pGGvBRUPymMC-59" value="todoId" style="shape=partialRectangle;whiteSpace=wrap;connectable=0;top=0;left=0;bottom=0;right=0;overflow=hidden;pointerEvents=1;rounded=0;shadow=0;sketch=0;fontSize=20;labelBackgroundColor=none;labelBorderColor=none;fillColor=#f5f5f5;fontColor=#333333;strokeColor=#666666;" parent="25cto-z_pGGvBRUPymMC-58" vertex="1">
                    <mxGeometry width="105" height="39" as="geometry">
                        <mxRectangle width="105" height="39" as="alternateBounds"/>
                    </mxGeometry>
                </mxCell>
                <mxCell id="25cto-z_pGGvBRUPymMC-60" value="string" style="shape=partialRectangle;whiteSpace=wrap;connectable=0;top=0;left=0;bottom=0;right=0;overflow=hidden;pointerEvents=1;rounded=0;shadow=0;sketch=0;fontSize=20;labelBackgroundColor=none;labelBorderColor=none;fillColor=#f5f5f5;fontColor=#333333;strokeColor=#666666;" parent="25cto-z_pGGvBRUPymMC-58" vertex="1">
                    <mxGeometry x="105" width="105" height="39" as="geometry">
                        <mxRectangle width="105" height="39" as="alternateBounds"/>
                    </mxGeometry>
                </mxCell>
                <mxCell id="25cto-z_pGGvBRUPymMC-61" style="shape=partialRectangle;whiteSpace=wrap;collapsible=0;dropTarget=0;pointerEvents=0;top=0;left=0;bottom=0;right=0;points=[[0,0.5],[1,0.5]];portConstraint=eastwest;rounded=0;shadow=0;sketch=0;fontSize=12;labelBackgroundColor=none;labelBorderColor=none;fillColor=#f5f5f5;fontColor=#333333;strokeColor=#666666;" parent="25cto-z_pGGvBRUPymMC-57" vertex="1">
                    <mxGeometry y="69" width="210" height="42" as="geometry"/>
                </mxCell>
                <mxCell id="25cto-z_pGGvBRUPymMC-62" value="createdAt" style="shape=partialRectangle;whiteSpace=wrap;connectable=0;top=0;left=0;bottom=0;right=0;overflow=hidden;pointerEvents=1;rounded=0;shadow=0;sketch=0;fontSize=20;labelBackgroundColor=none;labelBorderColor=none;fillColor=#f5f5f5;fontColor=#333333;strokeColor=#666666;" parent="25cto-z_pGGvBRUPymMC-61" vertex="1">
                    <mxGeometry width="105" height="42" as="geometry">
                        <mxRectangle width="105" height="42" as="alternateBounds"/>
                    </mxGeometry>
                </mxCell>
                <mxCell id="25cto-z_pGGvBRUPymMC-63" value="string" style="shape=partialRectangle;whiteSpace=wrap;connectable=0;top=0;left=0;bottom=0;right=0;overflow=hidden;pointerEvents=1;rounded=0;shadow=0;sketch=0;fontSize=20;labelBackgroundColor=none;labelBorderColor=none;fillColor=#f5f5f5;fontColor=#333333;strokeColor=#666666;" parent="25cto-z_pGGvBRUPymMC-61" vertex="1">
                    <mxGeometry x="105" width="105" height="42" as="geometry">
                        <mxRectangle width="105" height="42" as="alternateBounds"/>
                    </mxGeometry>
                </mxCell>
                <mxCell id="25cto-z_pGGvBRUPymMC-64" style="shape=partialRectangle;whiteSpace=wrap;collapsible=0;dropTarget=0;pointerEvents=0;top=0;left=0;bottom=0;right=0;points=[[0,0.5],[1,0.5]];portConstraint=eastwest;rounded=0;shadow=0;sketch=0;fontSize=12;labelBackgroundColor=none;labelBorderColor=none;fillColor=#f5f5f5;fontColor=#333333;strokeColor=#666666;" parent="25cto-z_pGGvBRUPymMC-57" vertex="1">
                    <mxGeometry y="111" width="210" height="35" as="geometry"/>
                </mxCell>
                <mxCell id="25cto-z_pGGvBRUPymMC-65" value="userId" style="shape=partialRectangle;whiteSpace=wrap;connectable=0;top=0;left=0;bottom=0;right=0;overflow=hidden;pointerEvents=1;rounded=0;shadow=0;sketch=0;fontSize=20;labelBackgroundColor=none;labelBorderColor=none;fillColor=#f5f5f5;fontColor=#333333;strokeColor=#666666;" parent="25cto-z_pGGvBRUPymMC-64" vertex="1">
                    <mxGeometry width="105" height="35" as="geometry">
                        <mxRectangle width="105" height="35" as="alternateBounds"/>
                    </mxGeometry>
                </mxCell>
                <mxCell id="25cto-z_pGGvBRUPymMC-66" value="string" style="shape=partialRectangle;whiteSpace=wrap;connectable=0;top=0;left=0;bottom=0;right=0;overflow=hidden;pointerEvents=1;rounded=0;shadow=0;sketch=0;fontSize=20;labelBackgroundColor=none;labelBorderColor=none;fillColor=#f5f5f5;fontColor=#333333;strokeColor=#666666;" parent="25cto-z_pGGvBRUPymMC-64" vertex="1">
                    <mxGeometry x="105" width="105" height="35" as="geometry">
                        <mxRectangle width="105" height="35" as="alternateBounds"/>
                    </mxGeometry>
                </mxCell>
                <mxCell id="25cto-z_pGGvBRUPymMC-67" value="" style="shape=partialRectangle;whiteSpace=wrap;collapsible=0;dropTarget=0;pointerEvents=0;top=0;left=0;bottom=0;right=0;points=[[0,0.5],[1,0.5]];portConstraint=eastwest;rounded=0;shadow=0;sketch=0;fontSize=12;labelBackgroundColor=none;labelBorderColor=none;fillColor=#f5f5f5;fontColor=#333333;strokeColor=#666666;" parent="25cto-z_pGGvBRUPymMC-57" vertex="1">
                    <mxGeometry y="146" width="210" height="35" as="geometry"/>
                </mxCell>
                <mxCell id="25cto-z_pGGvBRUPymMC-68" value="content" style="shape=partialRectangle;whiteSpace=wrap;connectable=0;top=0;left=0;bottom=0;right=0;overflow=hidden;pointerEvents=1;rounded=0;shadow=0;sketch=0;fontSize=20;labelBackgroundColor=none;labelBorderColor=none;fillColor=#f5f5f5;fontColor=#333333;strokeColor=#666666;" parent="25cto-z_pGGvBRUPymMC-67" vertex="1">
                    <mxGeometry width="105" height="35" as="geometry">
                        <mxRectangle width="105" height="35" as="alternateBounds"/>
                    </mxGeometry>
                </mxCell>
                <mxCell id="25cto-z_pGGvBRUPymMC-69" value="string" style="shape=partialRectangle;whiteSpace=wrap;connectable=0;top=0;left=0;bottom=0;right=0;overflow=hidden;pointerEvents=1;rounded=0;shadow=0;sketch=0;fontSize=20;labelBackgroundColor=none;labelBorderColor=none;fillColor=#f5f5f5;fontColor=#333333;strokeColor=#666666;" parent="25cto-z_pGGvBRUPymMC-67" vertex="1">
                    <mxGeometry x="105" width="105" height="35" as="geometry">
                        <mxRectangle width="105" height="35" as="alternateBounds"/>
                    </mxGeometry>
                </mxCell>
                <mxCell id="25cto-z_pGGvBRUPymMC-70" style="edgeStyle=none;html=1;entryX=0.5;entryY=1;entryDx=0;entryDy=0;fontSize=18;" parent="25cto-z_pGGvBRUPymMC-36" source="25cto-z_pGGvBRUPymMC-53" target="25cto-z_pGGvBRUPymMC-57" edge="1">
                    <mxGeometry relative="1" as="geometry">
                        <Array as="points">
                            <mxPoint x="421" y="277"/>
                        </Array>
                    </mxGeometry>
                </mxCell>
                <mxCell id="25cto-z_pGGvBRUPymMC-71" value="comment" style="shape=table;startSize=30;container=1;collapsible=0;childLayout=tableLayout;fontStyle=1;align=center;pointerEvents=1;fillColor=#d5e8d4;strokeColor=#82b366;" parent="o2rCxQrs2q715OUxCT-L-1" vertex="1">
                    <mxGeometry x="50" y="680" width="680" height="190" as="geometry"/>
                </mxCell>
                <mxCell id="25cto-z_pGGvBRUPymMC-82" value="" style="shape=partialRectangle;html=1;whiteSpace=wrap;collapsible=0;dropTarget=0;pointerEvents=0;fillColor=none;top=0;left=0;bottom=0;right=0;points=[[0,0.5],[1,0.5]];portConstraint=eastwest;" parent="25cto-z_pGGvBRUPymMC-71" vertex="1">
                    <mxGeometry y="30" width="680" height="46" as="geometry"/>
                </mxCell>
                <mxCell id="25cto-z_pGGvBRUPymMC-83" value="get&lt;br&gt;comment" style="shape=partialRectangle;html=1;whiteSpace=wrap;connectable=0;fillColor=none;top=0;left=0;bottom=0;right=0;overflow=hidden;pointerEvents=1;fontSize=15;" parent="25cto-z_pGGvBRUPymMC-82" vertex="1">
                    <mxGeometry width="110" height="46" as="geometry">
                        <mxRectangle width="110" height="46" as="alternateBounds"/>
                    </mxGeometry>
                </mxCell>
                <mxCell id="25cto-z_pGGvBRUPymMC-84" value="GET" style="shape=partialRectangle;html=1;whiteSpace=wrap;connectable=0;fillColor=none;top=0;left=0;bottom=0;right=0;overflow=hidden;pointerEvents=1;fontSize=15;" parent="25cto-z_pGGvBRUPymMC-82" vertex="1">
                    <mxGeometry x="110" width="111" height="46" as="geometry">
                        <mxRectangle width="111" height="46" as="alternateBounds"/>
                    </mxGeometry>
                </mxCell>
                <mxCell id="25cto-z_pGGvBRUPymMC-85" value="&lt;span&gt;/api/todo/:todoId/comment&lt;/span&gt;" style="shape=partialRectangle;html=1;whiteSpace=wrap;connectable=0;fillColor=none;top=0;left=0;bottom=0;right=0;overflow=hidden;pointerEvents=1;fontSize=15;" parent="25cto-z_pGGvBRUPymMC-82" vertex="1">
                    <mxGeometry x="221" width="325" height="46" as="geometry">
                        <mxRectangle width="325" height="46" as="alternateBounds"/>
                    </mxGeometry>
                </mxCell>
                <mxCell id="25cto-z_pGGvBRUPymMC-86" value="" style="shape=partialRectangle;html=1;whiteSpace=wrap;connectable=0;fillColor=none;top=0;left=0;bottom=0;right=0;overflow=hidden;pointerEvents=1;fontSize=15;" parent="25cto-z_pGGvBRUPymMC-82" vertex="1">
                    <mxGeometry x="546" width="134" height="46" as="geometry">
                        <mxRectangle width="134" height="46" as="alternateBounds"/>
                    </mxGeometry>
                </mxCell>
                <mxCell id="25cto-z_pGGvBRUPymMC-72" value="" style="shape=partialRectangle;html=1;whiteSpace=wrap;collapsible=0;dropTarget=0;pointerEvents=0;fillColor=none;top=0;left=0;bottom=0;right=0;points=[[0,0.5],[1,0.5]];portConstraint=eastwest;" parent="25cto-z_pGGvBRUPymMC-71" vertex="1">
                    <mxGeometry y="76" width="680" height="47" as="geometry"/>
                </mxCell>
                <mxCell id="25cto-z_pGGvBRUPymMC-73" value="new comment" style="shape=partialRectangle;html=1;whiteSpace=wrap;connectable=0;fillColor=none;top=0;left=0;bottom=0;right=0;overflow=hidden;pointerEvents=1;fontSize=15;" parent="25cto-z_pGGvBRUPymMC-72" vertex="1">
                    <mxGeometry width="110" height="47" as="geometry">
                        <mxRectangle width="110" height="47" as="alternateBounds"/>
                    </mxGeometry>
                </mxCell>
                <mxCell id="25cto-z_pGGvBRUPymMC-74" value="POST" style="shape=partialRectangle;html=1;whiteSpace=wrap;connectable=0;fillColor=none;top=0;left=0;bottom=0;right=0;overflow=hidden;pointerEvents=1;fontSize=15;" parent="25cto-z_pGGvBRUPymMC-72" vertex="1">
                    <mxGeometry x="110" width="111" height="47" as="geometry">
                        <mxRectangle width="111" height="47" as="alternateBounds"/>
                    </mxGeometry>
                </mxCell>
                <mxCell id="25cto-z_pGGvBRUPymMC-75" value="/api/todo/:todoId/comment" style="shape=partialRectangle;html=1;whiteSpace=wrap;connectable=0;fillColor=none;top=0;left=0;bottom=0;right=0;overflow=hidden;pointerEvents=1;fontSize=15;" parent="25cto-z_pGGvBRUPymMC-72" vertex="1">
                    <mxGeometry x="221" width="325" height="47" as="geometry">
                        <mxRectangle width="325" height="47" as="alternateBounds"/>
                    </mxGeometry>
                </mxCell>
                <mxCell id="25cto-z_pGGvBRUPymMC-76" value="{content:string}" style="shape=partialRectangle;html=1;whiteSpace=wrap;connectable=0;fillColor=none;top=0;left=0;bottom=0;right=0;overflow=hidden;pointerEvents=1;fontSize=15;" parent="25cto-z_pGGvBRUPymMC-72" vertex="1">
                    <mxGeometry x="546" width="134" height="47" as="geometry">
                        <mxRectangle width="134" height="47" as="alternateBounds"/>
                    </mxGeometry>
                </mxCell>
                <mxCell id="25cto-z_pGGvBRUPymMC-77" value="" style="shape=partialRectangle;html=1;whiteSpace=wrap;collapsible=0;dropTarget=0;pointerEvents=0;fillColor=none;top=0;left=0;bottom=0;right=0;points=[[0,0.5],[1,0.5]];portConstraint=eastwest;" parent="25cto-z_pGGvBRUPymMC-71" vertex="1">
                    <mxGeometry y="123" width="680" height="67" as="geometry"/>
                </mxCell>
                <mxCell id="25cto-z_pGGvBRUPymMC-78" value="delete&lt;br&gt;comment" style="shape=partialRectangle;html=1;whiteSpace=wrap;connectable=0;fillColor=none;top=0;left=0;bottom=0;right=0;overflow=hidden;pointerEvents=1;fontSize=15;" parent="25cto-z_pGGvBRUPymMC-77" vertex="1">
                    <mxGeometry width="110" height="67" as="geometry">
                        <mxRectangle width="110" height="67" as="alternateBounds"/>
                    </mxGeometry>
                </mxCell>
                <mxCell id="25cto-z_pGGvBRUPymMC-79" value="DELETE" style="shape=partialRectangle;html=1;whiteSpace=wrap;connectable=0;fillColor=none;top=0;left=0;bottom=0;right=0;overflow=hidden;pointerEvents=1;fontSize=15;" parent="25cto-z_pGGvBRUPymMC-77" vertex="1">
                    <mxGeometry x="110" width="111" height="67" as="geometry">
                        <mxRectangle width="111" height="67" as="alternateBounds"/>
                    </mxGeometry>
                </mxCell>
                <mxCell id="25cto-z_pGGvBRUPymMC-80" value="&lt;span style=&quot;color: rgb(0 , 0 , 0) ; font-family: &amp;#34;helvetica&amp;#34; ; font-size: 15px ; font-style: normal ; font-weight: 400 ; letter-spacing: normal ; text-align: center ; text-indent: 0px ; text-transform: none ; word-spacing: 0px ; background-color: rgb(248 , 249 , 250) ; display: inline ; float: none&quot;&gt;/api/todo/:todoId/comment/:commentId&lt;/span&gt;" style="shape=partialRectangle;html=1;whiteSpace=wrap;connectable=0;fillColor=none;top=0;left=0;bottom=0;right=0;overflow=hidden;pointerEvents=1;fontSize=15;" parent="25cto-z_pGGvBRUPymMC-77" vertex="1">
                    <mxGeometry x="221" width="325" height="67" as="geometry">
                        <mxRectangle width="325" height="67" as="alternateBounds"/>
                    </mxGeometry>
                </mxCell>
                <mxCell id="25cto-z_pGGvBRUPymMC-81" value="-" style="shape=partialRectangle;html=1;whiteSpace=wrap;connectable=0;fillColor=none;top=0;left=0;bottom=0;right=0;overflow=hidden;pointerEvents=1;fontSize=15;" parent="25cto-z_pGGvBRUPymMC-77" vertex="1">
                    <mxGeometry x="546" width="134" height="67" as="geometry">
                        <mxRectangle width="134" height="67" as="alternateBounds"/>
                    </mxGeometry>
                </mxCell>
                <mxCell id="drmbOaxOiaKGGjVpz5t4-0" value="query" style="shape=table;startSize=30;container=1;collapsible=0;childLayout=tableLayout;fontStyle=1;align=center;pointerEvents=1;fillColor=#fff2cc;strokeColor=#d6b656;" parent="o2rCxQrs2q715OUxCT-L-1" vertex="1">
                    <mxGeometry x="50" y="890" width="680" height="70" as="geometry"/>
                </mxCell>
                <mxCell id="drmbOaxOiaKGGjVpz5t4-1" value="" style="shape=partialRectangle;html=1;whiteSpace=wrap;collapsible=0;dropTarget=0;pointerEvents=0;fillColor=none;top=0;left=0;bottom=0;right=0;points=[[0,0.5],[1,0.5]];portConstraint=eastwest;" parent="drmbOaxOiaKGGjVpz5t4-0" vertex="1">
                    <mxGeometry y="30" width="680" height="40" as="geometry"/>
                </mxCell>
                <mxCell id="drmbOaxOiaKGGjVpz5t4-2" value="get all todo" style="shape=partialRectangle;html=1;whiteSpace=wrap;connectable=0;fillColor=none;top=0;left=0;bottom=0;right=0;overflow=hidden;pointerEvents=1;fontSize=15;" parent="drmbOaxOiaKGGjVpz5t4-1" vertex="1">
                    <mxGeometry width="110" height="40" as="geometry">
                        <mxRectangle width="110" height="40" as="alternateBounds"/>
                    </mxGeometry>
                </mxCell>
                <mxCell id="drmbOaxOiaKGGjVpz5t4-3" value="GET" style="shape=partialRectangle;html=1;whiteSpace=wrap;connectable=0;fillColor=none;top=0;left=0;bottom=0;right=0;overflow=hidden;pointerEvents=1;fontSize=15;" parent="drmbOaxOiaKGGjVpz5t4-1" vertex="1">
                    <mxGeometry x="110" width="111" height="40" as="geometry">
                        <mxRectangle width="111" height="40" as="alternateBounds"/>
                    </mxGeometry>
                </mxCell>
                <mxCell id="drmbOaxOiaKGGjVpz5t4-4" value="&lt;span&gt;/api/query&lt;/span&gt;" style="shape=partialRectangle;html=1;whiteSpace=wrap;connectable=0;fillColor=none;top=0;left=0;bottom=0;right=0;overflow=hidden;pointerEvents=1;fontSize=15;" parent="drmbOaxOiaKGGjVpz5t4-1" vertex="1">
                    <mxGeometry x="221" width="206" height="40" as="geometry">
                        <mxRectangle width="206" height="40" as="alternateBounds"/>
                    </mxGeometry>
                </mxCell>
                <mxCell id="drmbOaxOiaKGGjVpz5t4-5" value="-" style="shape=partialRectangle;html=1;whiteSpace=wrap;connectable=0;fillColor=none;top=0;left=0;bottom=0;right=0;overflow=hidden;pointerEvents=1;fontSize=15;" parent="drmbOaxOiaKGGjVpz5t4-1" vertex="1">
                    <mxGeometry x="427" width="253" height="40" as="geometry">
                        <mxRectangle width="253" height="40" as="alternateBounds"/>
                    </mxGeometry>
                </mxCell>
            </root>
        </mxGraphModel>
    </diagram>
</mxfile>